<?xml version="1.0" encoding="UTF-8" standalone="no"?>
<!-- Created with Inkscape (http://www.inkscape.org/) -->

<svg
   xmlns:dc="http://purl.org/dc/elements/1.1/"
   xmlns:cc="http://creativecommons.org/ns#"
   xmlns:rdf="http://www.w3.org/1999/02/22-rdf-syntax-ns#"
   xmlns:svg="http://www.w3.org/2000/svg"
   xmlns="http://www.w3.org/2000/svg"
   xmlns:sodipodi="http://sodipodi.sourceforge.net/DTD/sodipodi-0.dtd"
   xmlns:inkscape="http://www.inkscape.org/namespaces/inkscape"
   width="210mm"
   height="297mm"
   id="svg3971"
   version="1.1"
   inkscape:version="0.48.4 r9939"
   sodipodi:docname="logo2.svg"
   inkscape:export-filename="/home/ajax/Descargas/hoy/clibre/logo2.png"
   inkscape:export-xdpi="89.150002"
   inkscape:export-ydpi="89.150002">
  <defs
     id="defs3973" />
  <sodipodi:namedview
     id="base"
     pagecolor="#ffffff"
     bordercolor="#666666"
     borderopacity="1.0"
     inkscape:pageopacity="0.0"
     inkscape:pageshadow="2"
     inkscape:zoom="1.5805851"
     inkscape:cx="332.85714"
     inkscape:cy="600"
     inkscape:document-units="px"
     inkscape:current-layer="layer1"
     showgrid="false"
     showborder="false"
     inkscape:showpageshadow="false"
     inkscape:window-width="1920"
     inkscape:window-height="1028"
     inkscape:window-x="-4"
     inkscape:window-y="28"
     inkscape:window-maximized="1" />
  <metadata
     id="metadata3976">
    <rdf:RDF>
      <cc:Work
         rdf:about="">
        <dc:format>image/svg+xml</dc:format>
        <dc:type
           rdf:resource="http://purl.org/dc/dcmitype/StillImage" />
        <dc:title></dc:title>
      </cc:Work>
    </rdf:RDF>
  </metadata>
  <g
     inkscape:label="Capa 1"
     inkscape:groupmode="layer"
     id="layer1">
    <g
       transform="translate(-124.45477,147.01813)"
       id="g3979">
      <path
         inkscape:export-ydpi="90"
         inkscape:export-xdpi="90"
         inkscape:export-filename="/home/ajax/Descargas/hoy/clibre/clibre_bn.png"
         sodipodi:nodetypes="cccccccccccccc"
         inkscape:connector-curvature="0"
         id="text3021-2"
         d="m 334.94169,352.61987 c -0.21712,-7.13138 3.64662,-14.35312 10.1816,-17.61168 5.95919,-3.09413 13.3458,-2.92511 19.43401,-0.27327 2.81638,1.08496 5.44497,4.12544 3.8774,7.18937 -1.31629,3.09065 -5.59325,2.69789 -7.55463,0.46723 -5.09583,-2.69967 -12.23271,-1.2507 -15.49977,3.59166 -2.84137,4.10871 -2.98606,14.75642 -0.28624,18.85377 1.96219,2.63026 5.35055,3.68088 8.44368,4.30167 12.52583,0.0195 261.1352,-0.039 273.65913,0.0293 3.47347,0.91993 3.9622,6.52186 0.74137,8.07141 -3.25417,0.22014 -242.62855,0.0381 -245.89854,0.0976 -10.06534,-0.0162 -20.13231,0.0324 -30.19663,-0.0244 -6.06764,-0.90133 -12.21355,-4.13501 -14.97708,-9.7745 -1.61923,-3.11272 -1.9355,-11.42874 -1.9243,-14.91814 z"
         style="font-size:235.11521912px;font-style:normal;font-variant:normal;font-weight:normal;font-stretch:normal;text-align:start;line-height:125%;letter-spacing:0px;word-spacing:0px;writing-mode:lr-tb;text-anchor:start;fill:#000000;fill-opacity:1;stroke:none;font-family:Powderworks BRK;-inkscape-font-specification:Powderworks BRK" />
      <text
         inkscape:export-ydpi="90"
         inkscape:export-xdpi="90"
         inkscape:export-filename="/home/ajax/Descargas/hoy/clibre/clibre_bn.png"
         transform="scale(1.4513328,0.68902185)"
         sodipodi:linespacing="125%"
         id="text3021-0-9"
         y="542.49634"
         x="270.84869"
         style="font-size:66.70133972px;font-style:normal;font-variant:normal;font-weight:normal;font-stretch:normal;text-align:start;line-height:125%;letter-spacing:0px;word-spacing:0px;writing-mode:lr-tb;text-anchor:start;fill:#000000;fill-opacity:1;stroke:none;font-family:Powderworks BRK;-inkscape-font-specification:Powderworks BRK"
         xml:space="preserve"><tspan
           style="font-size:66.70133972px;font-style:normal;font-variant:normal;font-weight:normal;font-stretch:normal;text-align:start;line-height:125%;writing-mode:lr-tb;text-anchor:start;fill:#000000;font-family:Powderworks BRK;-inkscape-font-specification:Powderworks BRK"
           y="542.49634"
           x="270.84869"
           id="tspan3023-6-3"
           sodipodi:role="line">LIBRE</tspan></text>
      <text
         inkscape:export-ydpi="90"
         inkscape:export-xdpi="90"
         inkscape:export-filename="/home/ajax/Descargas/hoy/clibre/clibre_bn.png"
         transform="scale(1.0609712,0.94253266)"
         sodipodi:linespacing="125%"
         id="text3051-4"
         y="419.77435"
         x="318.66083"
         style="font-size:19.8340168px;font-style:normal;font-weight:normal;line-height:125%;letter-spacing:0px;word-spacing:0px;fill:#000000;fill-opacity:1;stroke:none;font-family:Sans"
         xml:space="preserve"><tspan
           style="font-size:19.8340168px;font-style:normal;font-variant:normal;font-weight:bold;font-stretch:normal;text-align:start;line-height:125%;writing-mode:lr-tb;text-anchor:start;fill:#000000;font-family:Cantarell;-inkscape-font-specification:Cantarell Bold"
           y="419.77435"
           x="318.66083"
           id="tspan3053-7"
           sodipodi:role="line">Comité por la Libre Expresión</tspan></text>
      <g
         inkscape:export-ydpi="90"
         inkscape:export-xdpi="90"
         inkscape:export-filename="/home/ajax/Descargas/hoy/clibre/clibre_bn.png"
         style="fill:#000000"
         transform="matrix(0.35450666,0,0,0.35450666,282.82257,202.70868)"
         id="g3904-0-0">
        <g
           style="fill:#000000"
           id="g3837-3-9"
           transform="translate(608.08411,-9.1992408)">
          <path
             sodipodi:nodetypes="cccccccsc"
             inkscape:connector-curvature="0"
             id="path3053-9-2"
             d="m -343.96442,219.60459 c -1.02344,46.95023 13.16195,94.06323 61.63487,79.33089 13.73332,-5.12975 37.69122,-33.15219 37.80106,-33.15219 0.90875,17.24462 -12.56868,43.75056 -23.22762,54.1129 8.75118,0.007 81.30392,51.34219 64.9106,89.80066 -55.75734,-83.21735 -130.73325,-2.44127 -122.22837,57.69091 -38.79769,-42.80051 -27.13149,-100.47876 6.34939,-134.65018 -26.55478,-6.19299 -33.75354,-17.06456 -40.88173,-40.36809 -6.70418,-21.91736 3.02111,-57.63793 15.6418,-72.7649 z"
             style="fill:#000000;stroke:none" />
          <path
             transform="matrix(0.90360765,-0.06915392,0.07709445,1.0073636,-613.37698,40.272564)"
             d="m 351.02802,241.29105 c 0,13.52887 -10.85425,24.49619 -24.24366,24.49619 -13.3894,0 -24.24366,-10.96732 -24.24366,-24.49619 0,-13.52888 10.85426,-24.4962 24.24366,-24.4962 13.38941,0 24.24366,10.96732 24.24366,24.4962 z"
             sodipodi:ry="24.496199"
             sodipodi:rx="24.243662"
             sodipodi:cy="241.29105"
             sodipodi:cx="326.78436"
             id="path3051-7-0"
             style="fill:#000000;stroke:none"
             sodipodi:type="arc" />
        </g>
        <g
           style="fill:#000000"
           id="g3880-6-8"
           transform="translate(-2.105761,4.2115252)">
          <path
             style="fill:#000000;fill-opacity:1;stroke:none"
             d="m 451.87538,129.40595 c 0.57435,26.34838 -7.38646,52.78811 -34.58937,44.52034 -7.70712,-2.8788 -21.15224,-18.60494 -21.21389,-18.60494 -0.50998,9.67765 7.05352,24.55273 13.0353,30.36806 -4.91115,0.004 -45.62761,28.81313 -36.42771,50.39595 31.29092,-46.70141 73.36726,-1.37003 68.59433,32.37603 21.77319,-24.01956 17.12407,-60.96584 -5.68448,-72.55106 12.22307,-6.37821 21.06364,-12.59096 25.06397,-25.66886 3.76237,-12.29998 -1.69544,-32.34629 -8.77815,-40.83552 z"
             id="path3856-4-4"
             inkscape:connector-curvature="0"
             sodipodi:nodetypes="cccccccsc" />
          <path
             sodipodi:type="arc"
             style="fill:#000000;fill-opacity:1;stroke:none"
             id="path3858-8-0"
             sodipodi:cx="326.78436"
             sodipodi:cy="241.29105"
             sodipodi:rx="24.243662"
             sodipodi:ry="24.496199"
             d="m 351.02802,241.29105 c 0,13.52887 -10.85425,24.49619 -24.24366,24.49619 -13.3894,0 -24.24366,-10.96732 -24.24366,-24.49619 0,-13.52888 10.85426,-24.4962 24.24366,-24.4962 13.38941,0 24.24366,10.96732 24.24366,24.4962 z"
             transform="matrix(-0.5071029,-0.03880905,-0.04326526,0.56533054,603.0692,28.765157)" />
        </g>
        <g
           style="fill:#000000"
           id="g3876-7-0"
           transform="matrix(0.58889197,0,0,0.58889197,196.44623,67.774213)">
          <path
             sodipodi:nodetypes="cccccccsc"
             inkscape:connector-curvature="0"
             id="path3868-6-5"
             d="m 250.30344,44.533003 c -0.57435,26.34838 7.38646,52.78811 34.58937,44.52034 7.70712,-2.8788 21.15224,-18.60494 21.21389,-18.60494 0.50998,9.67765 -7.05352,24.55273 -13.0353,30.368057 4.91115,0.004 45.62761,28.81313 36.42771,50.39595 -31.29092,-46.70141 -73.36726,-1.37003 -68.59433,32.37603 -21.77319,-24.01956 -17.12407,-60.96584 5.68448,-72.55106 -12.22307,-6.37821 -21.06364,-12.590957 -25.06397,-25.668857 -3.76237,-12.29998 1.69544,-32.34629 8.77815,-40.83552 z"
             style="fill:#000000;fill-opacity:1;stroke:none" />
          <path
             transform="matrix(0.5071029,-0.03880905,0.04326526,0.56533054,99.10962,-56.10779)"
             d="m 351.02802,241.29105 c 0,13.52887 -10.85425,24.49619 -24.24366,24.49619 -13.3894,0 -24.24366,-10.96732 -24.24366,-24.49619 0,-13.52888 10.85426,-24.4962 24.24366,-24.4962 13.38941,0 24.24366,10.96732 24.24366,24.4962 z"
             sodipodi:ry="24.496199"
             sodipodi:rx="24.243662"
             sodipodi:cy="241.29105"
             sodipodi:cx="326.78436"
             id="path3870-0-7"
             style="fill:#000000;fill-opacity:1;stroke:none"
             sodipodi:type="arc" />
        </g>
      </g>
    </g>
    <rect
       style="fill:none;stroke:#000000;stroke-width:16;stroke-opacity:1"
       id="rect4078"
       width="402.96106"
       height="217.2468"
       x="148.51945"
       y="360.88165"
       ry="62.070511" />
  </g>
</svg>
