<?xml version="1.0" encoding="UTF-8" standalone="no"?>
<!-- Created with Inkscape (http://www.inkscape.org/) -->

<svg
   xmlns:dc="http://purl.org/dc/elements/1.1/"
   xmlns:cc="http://creativecommons.org/ns#"
   xmlns:rdf="http://www.w3.org/1999/02/22-rdf-syntax-ns#"
   xmlns:svg="http://www.w3.org/2000/svg"
   xmlns="http://www.w3.org/2000/svg"
   xmlns:sodipodi="http://sodipodi.sourceforge.net/DTD/sodipodi-0.dtd"
   xmlns:inkscape="http://www.inkscape.org/namespaces/inkscape"
   version="1.1"
   width="300"
   height="180"
   id="svg3971"
   inkscape:version="0.48.4 r9939"
   sodipodi:docname="logo.svg">
  <sodipodi:namedview
     pagecolor="#ffffff"
     bordercolor="#666666"
     borderopacity="1"
     objecttolerance="10"
     gridtolerance="10"
     guidetolerance="10"
     inkscape:pageopacity="0"
     inkscape:pageshadow="2"
     inkscape:window-width="640"
     inkscape:window-height="480"
     id="namedview22"
     showgrid="false"
     inkscape:zoom="1.3111111"
     inkscape:cx="150"
     inkscape:cy="81.03559"
     inkscape:window-x="0"
     inkscape:window-y="0"
     inkscape:window-maximized="0"
     inkscape:current-layer="svg3971" />
  <defs
     id="defs3973" />
  <metadata
     id="metadata3976">
    <rdf:RDF>
      <cc:Work
         rdf:about="">
        <dc:format>image/svg+xml</dc:format>
        <dc:type
           rdf:resource="http://purl.org/dc/dcmitype/StillImage" />
        <dc:title />
      </cc:Work>
    </rdf:RDF>
  </metadata>
  <g
     id="g3031">
    <path
       inkscape:connector-curvature="0"
       style="font-size:235.11521912px;font-style:normal;font-variant:normal;font-weight:normal;font-stretch:normal;text-align:start;line-height:125%;letter-spacing:0px;word-spacing:0px;writing-mode:lr-tb;text-anchor:start;fill:#000000;fill-opacity:1;stroke:none;font-family:Powderworks BRK;-inkscape-font-specification:Powderworks BRK"
       id="text3021-2"
       d="m 3.83199,123.89753 c -0.21712,-7.13138 3.64662,-14.35312 10.1816,-17.61168 5.95919,-3.09413 13.3458,-2.92511 19.43401,-0.27327 2.81638,1.08496 5.44497,4.12544 3.8774,7.18937 -1.31629,3.09065 -5.59325,2.69789 -7.55463,0.46723 -5.09583,-2.69967 -12.23271,-1.2507 -15.49977,3.59166 -2.84137,4.10871 -2.98606,14.75642 -0.28624,18.85377 1.96219,2.63026 5.35055,3.68088 8.44368,4.30167 12.52583,0.0195 261.1352,-0.039 273.65913,0.0293 3.47347,0.91993 3.9622,6.52186 0.74137,8.07141 -3.25417,0.22014 -242.62855,0.0381 -245.89854,0.0976 -10.06534,-0.0162 -20.13231,0.0324 -30.19663,-0.0244 -6.06764,-0.90133 -12.21355,-4.13501 -14.97708,-9.7745 -1.61923,-3.11272 -1.9355,-11.42874 -1.9243,-14.91814 z" />
    <path
       inkscape:connector-curvature="0"
       id="text3021-0-9"
       d="m 62.949952,142.67964 c 2.014357,-2.82245 10.338503,-2.03997 7.550857,-5.96298 0,-7.09684 0,-14.19368 0,-21.29051 -12.378133,0.41889 -6.815892,-6.60278 2.435281,-4.91758 6.197773,-0.74001 9.303783,2.03777 8.019748,4.60305 0,8.3774 0,16.75481 0,25.13221 7.008693,0.16759 14.250186,-0.34589 21.103672,0.27575 6.89773,3.4064 -2.788702,5.36064 -9.05539,4.54991 -9.283635,-0.12809 -18.711464,0.26248 -27.900241,-0.20681 -1.436771,-0.50712 -2.045313,-1.36924 -2.153927,-2.18304 z m 23.823315,0 c 2.014355,-2.82245 10.338501,-2.03997 7.550855,-5.96298 0,-3.37419 0,-6.74837 0,-10.12256 -12.378133,0.41889 -6.815895,-6.60278 2.435281,-4.91757 6.197777,-0.74001 9.303787,2.03777 8.019747,4.60305 0,4.65475 0,9.3095 0,13.96425 7.00869,0.16759 14.25019,-0.34589 21.10368,0.27575 6.89773,3.4064 -2.78871,5.36064 -9.0554,4.54991 -9.28363,-0.12809 -18.711461,0.26248 -27.900236,-0.20681 -1.436773,-0.50712 -2.045314,-1.36924 -2.153927,-2.18304 z m 7.841272,-24.17426 c 2.051646,-6.09623 18.029971,1.42261 5.033904,2.43581 -2.834517,0.0911 -5.185989,-1.11903 -5.033904,-2.43581 z m 15.982041,24.17426 c 2.01394,-2.83192 10.33773,-2.03889 7.55086,-5.96298 0,-7.11216 0,-14.22432 0,-21.33647 -12.37814,0.41888 -6.8159,-6.60279 2.43528,-4.91759 6.20615,-0.73204 9.43425,2.00882 8.11655,4.60306 0,2.78577 0,5.57153 0,8.35729 13.26972,-3.89758 34.11107,-1.33324 38.07492,6.34806 4.67498,6.73076 -5.05668,15.07347 -20.80719,15.24678 -9.20645,0.51721 -16.31538,-2.57382 -23.57759,0.0517 -4.40287,-0.22991 -11.79352,1.00136 -11.79283,-2.38985 z m 18.1995,-9.23769 c -1.1408,6.0303 16.30586,8.88302 24.68548,4.91758 8.22723,-3.76644 3.14599,-11.60953 -8.8396,-11.77977 -8.48142,-0.59063 -16.29635,2.80484 -15.84588,6.86219 z m 40.98063,9.23769 c 2.01394,-2.83192 10.33773,-2.03889 7.55086,-5.96298 0,-3.37419 0,-6.74837 0,-10.12256 -12.36872,0.30625 -6.81312,-6.58054 2.43528,-4.91757 6.80858,0.0477 9.60797,2.64691 16.56284,0.13789 10.18797,-0.30274 20.44647,-0.0597 30.66328,-0.13789 9.43811,2.02517 0.0846,6.12536 -6.9455,4.82566 -8.02884,0.21849 -16.36536,-0.52154 -24.12917,0.5515 -10.40014,2.32903 -7.53055,8.10841 -7.93808,12.48689 6.56114,-0.10535 11.5159,6.08253 0.77678,5.52891 -5.59094,-0.12829 -11.32645,0.26335 -16.82235,-0.20681 -1.43678,-0.50712 -2.04532,-1.36924 -2.15394,-2.18304 z m 44.2433,-9.23769 c -0.99952,-7.07972 13.61327,-13.31122 28.36411,-11.62754 8.30384,-0.29142 18.11662,4.12536 9.49887,7.17791 -6.32861,3.52071 -12.65722,7.04142 -18.98584,10.56213 6.78068,1.33453 14.57627,0.42036 21.82672,0.68938 9.37503,0 18.75006,0 28.12509,0 9.34276,2.11316 0.47688,6.11962 -6.65507,4.82566 -13.91438,-0.0383 -27.84136,0.0767 -41.74787,-0.0574 -11.97798,-0.80005 -20.95109,-5.80498 -20.42601,-11.5701 z m 10.35822,-0.0919 c -0.96174,4.52613 4.29499,0.93032 7.07056,-0.6864 3.36903,-1.94762 7.09465,-3.77876 10.25768,-5.79377 -8.03109,-1.46659 -17.95079,2.42598 -17.32824,6.48017 z"
       style="font-size:66.70133972px;font-style:normal;font-variant:normal;font-weight:normal;font-stretch:normal;text-align:start;line-height:125%;letter-spacing:0px;word-spacing:0px;writing-mode:lr-tb;text-anchor:start;fill:#000000;fill-opacity:1;stroke:none;font-family:Powderworks BRK;-inkscape-font-specification:Powderworks BRK" />
    <text
       sodipodi:linespacing="125%"
       style="font-size:19.8340168px;font-style:normal;font-weight:normal;line-height:125%;letter-spacing:0px;word-spacing:0px;fill:#000000;fill-opacity:1;stroke:none;font-family:Sans"
       xml:space="preserve"
       id="text3051-4"
       transform="scale(1.0609712,0.94253266)"
       y="177.10654"
       x="6.5791235"><tspan
         style="font-size:19.8340168px;font-style:normal;font-variant:normal;font-weight:bold;font-stretch:normal;text-align:start;line-height:125%;writing-mode:lr-tb;text-anchor:start;fill:#000000;font-family:Cantarell;-inkscape-font-specification:Cantarell Bold"
         id="tspan3053-7"
         y="177.10654"
         x="6.5791235">Comité por la Libre Expresión</tspan></text>
    <g
       style="fill:#000000"
       id="g3904-0-0"
       transform="matrix(0.35450666,0,0,0.35450666,-48.28713,-26.01366)">
      <g
         style="fill:#000000"
         id="g3837-3-9"
         transform="translate(608.08411,-9.1992408)">
        <path
           inkscape:connector-curvature="0"
           style="fill:#000000;stroke:none"
           id="path3053-9-2"
           d="m -343.96442,219.60459 c -1.02344,46.95023 13.16195,94.06323 61.63487,79.33089 13.73332,-5.12975 37.69122,-33.15219 37.80106,-33.15219 0.90875,17.24462 -12.56868,43.75056 -23.22762,54.1129 8.75118,0.007 81.30392,51.34219 64.9106,89.80066 -55.75734,-83.21735 -130.73325,-2.44127 -122.22837,57.69091 -38.79769,-42.80051 -27.13149,-100.47876 6.34939,-134.65018 -26.55478,-6.19299 -33.75354,-17.06456 -40.88173,-40.36809 -6.70418,-21.91736 3.02111,-57.63793 15.6418,-72.7649 z" />
        <path
           inkscape:connector-curvature="0"
           style="fill:#000000;stroke:none"
           id="path3051-7-0"
           transform="matrix(0.90360765,-0.06915392,0.07709445,1.0073636,-613.37698,40.272564)"
           d="m 351.02802,241.29105 a 24.243662,24.496199 0 1 1 -48.48732,0 24.243662,24.496199 0 1 1 48.48732,0 z" />
      </g>
      <g
         style="fill:#000000"
         id="g3880-6-8"
         transform="translate(-2.105761,4.2115252)">
        <path
           inkscape:connector-curvature="0"
           style="fill:#000000;fill-opacity:1;stroke:none"
           id="path3856-4-4"
           d="m 451.87538,129.40595 c 0.57435,26.34838 -7.38646,52.78811 -34.58937,44.52034 -7.70712,-2.8788 -21.15224,-18.60494 -21.21389,-18.60494 -0.50998,9.67765 7.05352,24.55273 13.0353,30.36806 -4.91115,0.004 -45.62761,28.81313 -36.42771,50.39595 31.29092,-46.70141 73.36726,-1.37003 68.59433,32.37603 21.77319,-24.01956 17.12407,-60.96584 -5.68448,-72.55106 12.22307,-6.37821 21.06364,-12.59096 25.06397,-25.66886 3.76237,-12.29998 -1.69544,-32.34629 -8.77815,-40.83552 z" />
        <path
           inkscape:connector-curvature="0"
           style="fill:#000000;fill-opacity:1;stroke:none"
           id="path3858-8-0"
           transform="matrix(-0.5071029,-0.03880905,-0.04326526,0.56533054,603.0692,28.765157)"
           d="m 351.02802,241.29105 a 24.243662,24.496199 0 1 1 -48.48732,0 24.243662,24.496199 0 1 1 48.48732,0 z" />
      </g>
      <g
         style="fill:#000000"
         id="g3876-7-0"
         transform="matrix(0.58889197,0,0,0.58889197,196.44623,67.774213)">
        <path
           inkscape:connector-curvature="0"
           style="fill:#000000;fill-opacity:1;stroke:none"
           id="path3868-6-5"
           d="m 250.30344,44.533003 c -0.57435,26.34838 7.38646,52.78811 34.58937,44.52034 7.70712,-2.8788 21.15224,-18.60494 21.21389,-18.60494 0.50998,9.67765 -7.05352,24.55273 -13.0353,30.368057 4.91115,0.004 45.62761,28.81313 36.42771,50.39595 -31.29092,-46.70141 -73.36726,-1.37003 -68.59433,32.37603 -21.77319,-24.01956 -17.12407,-60.96584 5.68448,-72.55106 -12.22307,-6.37821 -21.06364,-12.590957 -25.06397,-25.668857 -3.76237,-12.29998 1.69544,-32.34629 8.77815,-40.83552 z" />
        <path
           inkscape:connector-curvature="0"
           style="fill:#000000;fill-opacity:1;stroke:none"
           id="path3870-0-7"
           transform="matrix(0.5071029,-0.03880905,0.04326526,0.56533054,99.10962,-56.10779)"
           d="m 351.02802,241.29105 a 24.243662,24.496199 0 1 1 -48.48732,0 24.243662,24.496199 0 1 1 48.48732,0 z" />
      </g>
    </g>
  </g>
</svg>
